<?xml version="1.0" standalone="no"?>
<!DOCTYPE svg PUBLIC "-//W3C//DTD SVG 20010904//EN"
 "http://www.w3.org/TR/2001/REC-SVG-20010904/DTD/svg10.dtd">
<svg version="1.0" xmlns="http://www.w3.org/2000/svg"
 width="600.000000pt" height="400.000000pt" viewBox="0 0 600.000000 400.000000"
 preserveAspectRatio="xMidYMid meet">

<g transform="translate(0.000000,400.000000) scale(0.100000,-0.100000)"
fill="#000000" stroke="none">
<path d="M2835 2768 c-152 -217 -269 -383 -478 -677 -119 -166 -132 -191 -154
-274 -24 -95 -13 -192 32 -283 47 -96 103 -152 200 -200 77 -38 81 -39 189
-39 101 0 117 3 171 28 33 15 77 41 98 58 l37 30 0 -77 c0 -94 -15 -128 -86
-193 -49 -45 -140 -91 -179 -91 -10 0 -15 -10 -15 -30 l0 -30 175 0 175 0 0
325 c0 179 -2 325 -5 325 -3 0 -21 -17 -40 -39 -20 -21 -62 -51 -97 -67 -258
-117 -532 139 -425 396 13 30 75 127 138 215 111 155 114 159 117 125 4 -57
-45 -302 -63 -312 -33 -19 -65 -64 -74 -106 -28 -132 99 -240 223 -188 91 38
130 154 80 234 -13 20 -12 32 11 115 24 85 76 281 112 420 9 31 19 57 22 57 4
0 42 -128 85 -285 75 -279 76 -285 59 -311 -27 -41 -23 -123 7 -168 92 -136
302 -74 302 90 0 39 -35 123 -51 124 -29 2 -43 38 -71 186 -17 87 -29 167 -28
177 2 12 43 -38 118 -144 160 -227 164 -235 165 -339 0 -71 -4 -93 -25 -135
-33 -65 -84 -115 -150 -148 -45 -23 -67 -27 -136 -27 -70 0 -89 4 -140 30 -32
16 -62 30 -66 30 -5 0 -8 -33 -8 -74 0 -73 1 -74 37 -106 20 -18 67 -47 103
-64 60 -29 73 -31 175 -31 106 0 113 1 185 36 95 46 160 111 208 208 35 71 37
81 37 170 0 157 9 140 -350 646 -82 116 -216 306 -298 423 -82 116 -153 212
-157 212 -5 0 -79 -100 -165 -222z"/>
<path d="M2966 1979 l-29 -62 29 -58 c16 -32 31 -59 34 -59 3 0 18 27 33 59
l28 59 -28 61 c-15 34 -30 61 -33 61 -3 0 -18 -28 -34 -61z"/>
<path d="M3080 1095 l0 -105 135 0 135 0 0 30 c0 20 -5 30 -15 30 -42 0 -130
46 -184 96 -32 30 -61 54 -65 54 -3 0 -6 -47 -6 -105z"/>
</g>
</svg>
